<svg width="512" height="512" viewBox="0 0 512 512" fill="none" xmlns="http://www.w3.org/2000/svg">
  <defs>
    <linearGradient id="paint0_linear" x1="80" y1="80" x2="432" y2="432" gradientUnits="userSpaceOnUse">
      <stop stop-color="#3B82F6"/>
      <stop offset="1" stop-color="#8B5CF6"/>
    </linearGradient>
    <filter id="filter0_f" x="0" y="0" width="512" height="512" filterUnits="userSpaceOnUse" color-interpolation-filters="sRGB">
      <feGaussianBlur stdDeviation="20" result="blur"/>
    </filter>
  </defs>
  
  <!-- Glow effect -->
  <path d="M256 412C342.154 412 412 342.154 412 256C412 169.846 342.154 100 256 100C169.846 100 100 169.846 100 256C100 342.154 169.846 412 256 412Z" fill="url(#paint0_linear)" fill-opacity="0.3" filter="url(#filter0_f)"/>
  
  <!-- Main Bubble -->
  <path fill-rule="evenodd" clip-rule="evenodd" d="M256 80C158.799 80 80 158.799 80 256C80 300.751 96.6573 341.609 124.032 372.5L120 440L187.5 400.968C208.391 412.029 231.424 418.333 256 418.333C353.201 418.333 432 339.534 432 242.333C432 145.132 353.201 66.3333 256 66.3333V80Z" fill="url(#paint0_linear)"/>
  
  <!-- "AI" Text with style -->
  <text x="50%" y="52%" dominant-baseline="middle" text-anchor="middle" font-family="system-ui, -apple-system, sans-serif" font-weight="800" font-size="120" fill="white">AI</text>
  
  <!-- Tech lines/nodes -->
  <circle cx="210" cy="180" r="8" fill="white" fill-opacity="0.6"/>
  <circle cx="302" cy="180" r="8" fill="white" fill-opacity="0.6"/>
  <circle cx="256" cy="320" r="12" fill="white" fill-opacity="0.4"/>
  <path d="M218 180H294" stroke="white" stroke-opacity="0.2" stroke-width="2"/>
</svg>
